<svg xmlns="http://www.w3.org/2000/svg" width="32" height="32" viewBox="0 0 24 24" fill="none">
  <rect width="24" height="24" rx="4" fill="#6366f1"/>
  <path d="M4 12h1c1 0 2.5-.5 3.5-1.5S10 8 11 8s2.5.5 3.5 1.5S16 11 17 11s2.5-.5 3.5-1.5S22 7 23 7h1" stroke="white" stroke-width="2" stroke-linecap="round"/>
  <path d="M4 17h1c1 0 2.5-.5 3.5-1.5S10 13 11 13s2.5.5 3.5 1.5S16 16 17 16s2.5-.5 3.5-1.5S22 12 23 12h1" stroke="white" stroke-width="2" stroke-linecap="round"/>
  <path d="M11 4v6M11 4l-2 2M11 4l2 2" stroke="white" stroke-width="2" stroke-linecap="round" stroke-linejoin="round"/>
</svg>