<svg width="198" height="61" viewBox="0 0 198 61" fill="none" xmlns="http://www.w3.org/2000/svg">
<g clip-path="url(#clip0_301_83)">
<path d="M73.3035 30.5075V14.1599H83.356C84.1982 14.1599 84.9644 14.3259 85.6548 14.6578C86.3376 14.9897 86.8839 15.4575 87.2936 16.061C87.7032 16.6645 87.9005 17.3661 87.9005 18.1808C87.9005 18.8975 87.7791 19.5085 87.5288 20.014C87.2784 20.5194 86.9522 20.9343 86.5501 21.2512C86.1404 21.568 85.6852 21.8094 85.1768 21.9679V22.0659C85.7686 22.1942 86.2997 22.4205 86.7777 22.7449C87.2556 23.0693 87.635 23.5144 87.9157 24.0651C88.1964 24.6233 88.333 25.2947 88.333 26.0868C88.333 27.0223 88.1129 27.8219 87.6653 28.4782C87.2177 29.1346 86.6259 29.64 85.8976 29.987C85.1617 30.334 84.3423 30.5075 83.4319 30.5075H73.3111H73.3035ZM77.5901 20.6552H81.8766C82.2256 20.6552 82.5291 20.5873 82.7718 20.444C83.0146 20.3006 83.2119 20.1045 83.3484 19.848C83.485 19.5915 83.5533 19.2898 83.5533 18.9427C83.5533 18.4373 83.4015 18.0375 83.0981 17.7508C82.7946 17.4641 82.4153 17.3208 81.9525 17.3208H77.5976V20.6552H77.5901ZM77.5901 27.226H82.2559C82.7642 27.226 83.1739 27.0751 83.485 26.7733C83.7961 26.4716 83.9554 26.0114 83.9554 25.3928C83.9554 25.0609 83.8871 24.7591 83.7505 24.5026C83.614 24.2386 83.4167 24.0349 83.1512 23.8991C82.8856 23.7558 82.567 23.6879 82.1801 23.6879H77.5825V27.2335L77.5901 27.226Z" fill="#132545"/>
<path d="M98.6965 30.7942C97.1185 30.7942 95.7604 30.5453 94.6148 30.0549C93.4768 29.5646 92.6043 28.8253 91.9974 27.8446C91.3905 26.8638 91.087 25.6417 91.087 24.1782V14.1599H95.3963V24.0801C95.3963 25.1287 95.677 25.951 96.2308 26.5545C96.7922 27.1581 97.6116 27.4598 98.6965 27.4598C99.7814 27.4598 100.608 27.1581 101.185 26.5545C101.762 25.951 102.05 25.1287 102.05 24.0801V14.1599H106.336V24.1782C106.336 25.6342 106.033 26.8563 105.426 27.8446C104.819 28.8253 103.947 29.5646 102.816 30.0549C101.686 30.5453 100.313 30.7942 98.7041 30.7942H98.6965Z" fill="#132545"/>
<path d="M109.864 30.5075V14.1599H119.408C120.622 14.1599 121.631 14.3862 122.451 14.8389C123.27 15.2915 123.877 15.9101 124.279 16.6947C124.689 17.4792 124.886 18.3543 124.886 19.3199C124.886 20.3685 124.643 21.2964 124.158 22.1187C123.672 22.9335 122.989 23.5747 122.109 24.0349L125.41 30.5075H120.622L117.891 24.7516H114.136V30.5075H109.849H109.864ZM114.151 21.5831H118.574C119.166 21.5831 119.636 21.387 120 21.0022C120.357 20.6099 120.539 20.097 120.539 19.4406C120.539 19.0106 120.455 18.6485 120.296 18.3468C120.137 18.045 119.917 17.8112 119.628 17.6452C119.34 17.4792 118.991 17.3962 118.574 17.3962H114.151V21.5831Z" fill="#132545"/>
<path d="M125.614 30.5075L131.79 14.1599H136.934L143.11 30.5075H138.542L137.564 27.6786H131.009L130.03 30.5075H125.63H125.614ZM132.025 24.4875H136.501L135.326 21.04C135.265 20.8664 135.189 20.6477 135.098 20.3836C135.007 20.1196 134.923 19.848 134.832 19.5538C134.741 19.2596 134.658 18.9654 134.582 18.6636C134.499 18.3619 134.423 18.0978 134.339 17.8791H134.172C134.112 18.1808 134.013 18.5203 133.899 18.905C133.778 19.2822 133.656 19.667 133.543 20.0442C133.421 20.4214 133.315 20.7608 133.216 21.04L132.018 24.4875H132.025Z" fill="#132545"/>
<path d="M144.589 30.5075V14.1599H148.39L154.376 21.7491C154.49 21.8773 154.634 22.0584 154.816 22.2998C154.998 22.5412 155.18 22.7826 155.355 23.024C155.529 23.2729 155.658 23.4615 155.734 23.6049L155.855 23.5822V14.1599H159.831V30.5075H156.053L149.71 22.511C149.505 22.2545 149.308 21.998 149.126 21.7264C148.944 21.4549 148.792 21.2361 148.686 21.0626L148.564 21.0852V30.5075H144.589Z" fill="#132545"/>
<path d="M163.419 30.5075V14.1599H170.285C172.068 14.1599 173.586 14.4541 174.822 15.0425C176.059 15.631 177 16.5212 177.645 17.7206C178.29 18.9201 178.616 20.4515 178.616 22.3224C178.616 24.1933 178.29 25.7096 177.645 26.9242C177 28.1388 176.059 29.0365 174.822 29.6249C173.586 30.2133 172.076 30.5075 170.285 30.5075H163.419ZM167.706 27.1731H170.24C170.908 27.1731 171.492 27.0751 171.985 26.8865C172.478 26.6979 172.895 26.4188 173.229 26.0566C173.563 25.6945 173.813 25.2419 173.973 24.6987C174.132 24.1631 174.215 23.5445 174.215 22.8429V21.8471C174.215 21.1305 174.132 20.5043 173.973 19.9687C173.813 19.4331 173.563 18.9805 173.229 18.6108C172.895 18.2487 172.478 17.9696 171.985 17.781C171.492 17.5924 170.908 17.4943 170.24 17.4943H167.706V27.1807V27.1731Z" fill="#132545"/>
<path d="M189.381 30.7942C187.576 30.7942 186.036 30.4849 184.753 29.8512C183.471 29.2251 182.485 28.2821 181.802 27.0298C181.119 25.7775 180.77 24.2084 180.77 22.3149C180.77 20.4213 181.112 18.8598 181.802 17.615C182.485 16.3703 183.471 15.4348 184.753 14.8087C186.036 14.1825 187.583 13.8657 189.381 13.8657C191.179 13.8657 192.727 14.1825 194.009 14.8087C195.291 15.4348 196.278 16.3703 196.968 17.615C197.651 18.8598 198 20.4289 198 22.3149C198 24.2008 197.659 25.77 196.968 27.0298C196.285 28.2821 195.299 29.2251 194.009 29.8512C192.727 30.4774 191.179 30.7942 189.381 30.7942ZM189.381 27.4598C190.064 27.4598 190.671 27.3542 191.202 27.1505C191.726 26.9468 192.173 26.6451 192.53 26.2452C192.886 25.8454 193.16 25.3626 193.334 24.7968C193.509 24.2235 193.6 23.5822 193.6 22.8731V21.8245C193.6 21.0928 193.509 20.444 193.334 19.8706C193.16 19.2973 192.894 18.8145 192.53 18.4222C192.173 18.0224 191.726 17.7206 191.202 17.5169C190.679 17.3133 190.072 17.2076 189.381 17.2076C188.691 17.2076 188.069 17.3133 187.538 17.5169C187.007 17.7206 186.574 18.0224 186.225 18.4222C185.876 18.822 185.611 19.3048 185.436 19.8706C185.262 20.444 185.171 21.0928 185.171 21.8245V22.8731C185.171 23.5898 185.262 24.231 185.436 24.7968C185.611 25.3701 185.876 25.853 186.225 26.2452C186.574 26.6451 187.014 26.9468 187.538 27.1505C188.061 27.3542 188.676 27.4598 189.381 27.4598Z" fill="#132545"/>
<path d="M72.7042 46.8552L76.1714 37.9911H78.3033L81.7856 46.8552H79.9572L79.244 44.9692H75.1623L74.4492 46.8552H72.7118H72.7042ZM75.6934 43.5509H78.6978L77.8025 41.152C77.7646 41.069 77.7267 40.9558 77.6812 40.8201C77.6356 40.6843 77.5825 40.5409 77.5294 40.3825C77.4763 40.2241 77.4232 40.0581 77.3701 39.8997C77.317 39.7337 77.2715 39.5904 77.2259 39.4622H77.1577C77.1046 39.6357 77.0439 39.8318 76.968 40.0581C76.8921 40.2844 76.8238 40.4957 76.7556 40.6918C76.6873 40.8879 76.6266 41.0464 76.5887 41.1595L75.6934 43.5585V43.5509Z" fill="#006A82"/>
<path d="M83.9099 46.8552V39.4395H81.0648V37.9911H88.4543V39.4395H85.5941V46.8552H83.9023H83.9099Z" fill="#006A82"/>
<path d="M89.7668 46.8552V37.9911H91.4587V45.3917H95.9273V46.8476H89.7668V46.8552Z" fill="#006A82"/>
<path d="M96.2536 46.8552L99.7208 37.9911H101.853L105.335 46.8552H103.507L102.793 44.9692H98.7117L97.9986 46.8552H96.2612H96.2536ZM99.2428 43.5509H102.247L101.352 41.152C101.314 41.069 101.276 40.9558 101.231 40.8201C101.185 40.6843 101.132 40.5409 101.079 40.3825C101.026 40.2241 100.973 40.0581 100.919 39.8997C100.866 39.7337 100.821 39.5904 100.775 39.4622H100.707C100.654 39.6357 100.593 39.8318 100.517 40.0581C100.442 40.2844 100.373 40.4957 100.305 40.6918C100.237 40.8879 100.176 41.0464 100.138 41.1595L99.2428 43.5585V43.5509Z" fill="#006A82"/>
<path d="M106.382 46.8552V37.9911H107.99L111.799 43.219C111.844 43.2718 111.898 43.3397 111.958 43.4302C112.019 43.5208 112.072 43.6113 112.125 43.6943C112.178 43.7773 112.209 43.8527 112.231 43.898H112.3V37.9836H113.923V46.8476H112.322L108.506 41.5745C108.438 41.4688 108.355 41.3406 108.263 41.1897C108.172 41.0388 108.112 40.9332 108.074 40.8729H108.006V46.8401H106.382V46.8552Z" fill="#006A82"/>
<path d="M118.073 46.8552V39.4395H115.228V37.9911H122.618V39.4395H119.757V46.8552H118.066H118.073Z" fill="#006A82"/>
<path d="M123.93 46.8552V37.9911H125.622V46.8552H123.93Z" fill="#006A82"/>
<path d="M131.517 47.0136C130.607 47.0136 129.833 46.8552 129.188 46.5383C128.543 46.2215 128.05 45.7236 127.708 45.0446C127.367 44.3657 127.193 43.4981 127.193 42.4269C127.193 40.8653 127.572 39.7111 128.338 38.9643C129.104 38.2174 130.159 37.8402 131.525 37.8402C132.26 37.8402 132.928 37.9685 133.52 38.2174C134.112 38.4664 134.582 38.8435 134.939 39.349C135.288 39.8544 135.462 40.4881 135.462 41.2651H133.732C133.732 40.8351 133.641 40.473 133.452 40.1713C133.262 39.8695 133.004 39.6507 132.678 39.4923C132.352 39.3339 131.972 39.2585 131.547 39.2585C130.956 39.2585 130.47 39.3716 130.083 39.5979C129.696 39.8243 129.408 40.1637 129.218 40.6088C129.029 41.0539 128.937 41.6122 128.937 42.276V42.5627C128.937 43.2341 129.029 43.7924 129.218 44.245C129.408 44.6901 129.689 45.0296 130.075 45.2559C130.462 45.4822 130.956 45.5953 131.547 45.5953C131.995 45.5953 132.389 45.5199 132.731 45.369C133.065 45.2181 133.33 44.9918 133.52 44.6976C133.71 44.4034 133.801 44.0338 133.801 43.6038H135.462C135.462 44.3808 135.288 45.0145 134.946 45.5199C134.597 46.0253 134.127 46.395 133.535 46.6439C132.943 46.8929 132.276 47.0136 131.525 47.0136H131.517Z" fill="#006A82"/>
<path d="M143.61 47.0136C142.23 47.0136 141.167 46.6439 140.401 45.9122C139.642 45.1729 139.255 44.0187 139.255 42.4344C139.255 41.3934 139.438 40.5334 139.794 39.8544C140.151 39.1755 140.674 38.6776 141.349 38.3456C142.032 38.0137 142.844 37.8477 143.8 37.8477C144.369 37.8477 144.908 37.9156 145.408 38.0439C145.909 38.1721 146.357 38.3683 146.736 38.6323C147.115 38.8964 147.419 39.2207 147.639 39.6206C147.859 40.0204 147.965 40.4881 147.965 41.0313H146.228C146.228 40.7446 146.167 40.4957 146.038 40.2769C145.909 40.0581 145.742 39.8695 145.515 39.7186C145.295 39.5678 145.044 39.4546 144.756 39.3792C144.468 39.3037 144.164 39.266 143.846 39.266C143.368 39.266 142.95 39.3264 142.594 39.4546C142.237 39.5828 141.934 39.7714 141.698 40.0204C141.463 40.2769 141.281 40.5937 141.167 40.9709C141.054 41.3481 140.993 41.7932 140.993 42.2987V42.5702C140.993 43.2643 141.091 43.8376 141.289 44.2902C141.486 44.7353 141.789 45.0673 142.192 45.2785C142.594 45.4897 143.094 45.5953 143.694 45.5953C144.202 45.5953 144.65 45.5199 145.037 45.3615C145.424 45.2031 145.727 44.9767 145.947 44.6825C146.167 44.3883 146.281 44.0187 146.281 43.5887V43.4981H143.436V42.1025H147.973V46.8552H146.766L146.622 45.8745C146.364 46.131 146.084 46.3422 145.788 46.5157C145.492 46.6892 145.166 46.8099 144.817 46.8929C144.46 46.9759 144.058 47.0136 143.61 47.0136Z" fill="#006A82"/>
<path d="M149.869 46.8552V37.9911H154.558C155.218 37.9911 155.764 38.1042 156.197 38.3306C156.629 38.5569 156.955 38.8737 157.168 39.2886C157.388 39.7036 157.494 40.1864 157.494 40.7446C157.494 41.3029 157.365 41.8309 157.107 42.276C156.849 42.7211 156.47 43.053 155.962 43.2794L157.805 46.8552H155.962L154.323 43.5585H151.554V46.8552H149.862H149.869ZM151.561 42.1553H154.429C154.862 42.1553 155.195 42.0271 155.431 41.7781C155.666 41.5292 155.78 41.1822 155.78 40.7446C155.78 40.4579 155.726 40.2241 155.62 40.0279C155.514 39.8318 155.362 39.6885 155.165 39.5829C154.968 39.4772 154.717 39.4244 154.421 39.4244H151.554V42.1478L151.561 42.1553Z" fill="#006A82"/>
<path d="M163.215 47.0136C162.289 47.0136 161.485 46.8476 160.81 46.5157C160.134 46.1838 159.618 45.6783 159.254 44.9994C158.898 44.3204 158.716 43.4604 158.716 42.4269C158.716 41.3934 158.898 40.5258 159.254 39.8469C159.611 39.1679 160.134 38.67 160.81 38.3381C161.485 38.0062 162.289 37.8402 163.215 37.8402C164.14 37.8402 164.952 38.0062 165.627 38.3381C166.295 38.67 166.811 39.1755 167.175 39.8469C167.531 40.5258 167.714 41.3858 167.714 42.4269C167.714 43.468 167.531 44.3204 167.175 44.9994C166.818 45.6783 166.302 46.1838 165.627 46.5157C164.96 46.8476 164.155 47.0136 163.215 47.0136ZM163.215 45.5953C163.662 45.5953 164.064 45.5274 164.406 45.3992C164.747 45.271 165.035 45.0748 165.271 44.8259C165.506 44.5694 165.68 44.2601 165.802 43.8829C165.923 43.5057 165.984 43.0757 165.984 42.5853V42.2987C165.984 41.8008 165.923 41.3632 165.802 40.9785C165.68 40.6013 165.506 40.2844 165.271 40.0279C165.035 39.7715 164.747 39.5829 164.406 39.4546C164.064 39.3264 163.67 39.2585 163.215 39.2585C162.759 39.2585 162.365 39.3264 162.023 39.4546C161.682 39.5829 161.394 39.779 161.159 40.0279C160.923 40.2844 160.749 40.6013 160.635 40.9785C160.521 41.3557 160.461 41.7932 160.461 42.2987V42.5853C160.461 43.0757 160.521 43.5057 160.635 43.8829C160.749 44.2601 160.931 44.5694 161.159 44.8259C161.394 45.0824 161.682 45.271 162.023 45.3992C162.365 45.5274 162.759 45.5953 163.215 45.5953Z" fill="#006A82"/>
<path d="M172.979 47.0136C172.197 47.0136 171.53 46.8853 170.968 46.6364C170.407 46.3874 169.974 46.0027 169.679 45.4973C169.383 44.9918 169.231 44.3431 169.231 43.5811V37.9986H170.923V43.5283C170.923 44.2073 171.105 44.7202 171.461 45.0748C171.818 45.4218 172.326 45.5953 172.986 45.5953C173.646 45.5953 174.155 45.4218 174.526 45.0748C174.898 44.7278 175.08 44.2148 175.08 43.5283V37.9986H176.772V43.5811C176.772 44.3506 176.62 44.9843 176.317 45.4973C176.013 46.0103 175.581 46.3874 175.02 46.6364C174.458 46.8853 173.783 47.0136 172.994 47.0136H172.979Z" fill="#006A82"/>
<path d="M178.684 46.8552V37.9911H183.153C183.813 37.9911 184.351 38.1042 184.784 38.3381C185.216 38.572 185.535 38.8964 185.755 39.3188C185.975 39.7413 186.081 40.2467 186.081 40.8276C186.081 41.4085 185.967 41.9064 185.747 42.3364C185.52 42.7664 185.186 43.0983 184.738 43.3397C184.291 43.5736 183.737 43.6943 183.069 43.6943H180.383V46.8476H178.692L178.684 46.8552ZM180.376 42.2685H183.016C183.449 42.2685 183.782 42.1402 184.025 41.8837C184.26 41.6272 184.382 41.2802 184.382 40.8276C184.382 40.5258 184.329 40.2693 184.222 40.0657C184.116 39.862 183.964 39.7036 183.767 39.5904C183.57 39.4772 183.32 39.4244 183.016 39.4244H180.376V42.2685Z" fill="#006A82"/>
<path d="M24.4977 23.7557C24.4977 23.7557 48.8134 15.729 48.8134 30.5C48.8134 45.271 24.4977 37.3121 24.4977 37.3121V23.7557Z" fill="#18AA9D"/>
<path d="M48.8134 30.5C52.5764 27.3919 54.8297 23.4389 54.8297 19.1389C54.8297 9.10548 42.5543 0.965607 27.4111 0.965607C12.2678 0.965607 0 9.10548 0 19.1389C0 23.4389 2.25328 27.3844 6.01632 30.5C11.0388 26.3433 18.7621 23.6878 27.4187 23.6878C36.0752 23.6878 43.7909 26.3508 48.821 30.5H48.8134Z" fill="#30EBB9"/>
<mask id="mask0_301_83" style="mask-type:luminance" maskUnits="userSpaceOnUse" x="0" y="0" width="55" height="31">
<path d="M48.8134 30.5C52.5764 27.3919 54.8297 23.4389 54.8297 19.1389C54.8297 9.10548 42.5543 0.965607 27.4111 0.965607C12.2678 0.965607 0 9.10548 0 19.1389C0 23.4389 2.25328 27.3844 6.01632 30.5C11.0388 26.3433 18.7621 23.6878 27.4187 23.6878C36.0752 23.6878 43.7909 26.3508 48.821 30.5H48.8134Z" fill="white"/>
</mask>
<g mask="url(#mask0_301_83)">
<path d="M67.4921 0H24.4977V30.5H67.4921V0Z" fill="#132545"/>
</g>
<path d="M27.4187 37.3121C18.7621 37.3121 11.0464 34.6491 6.01632 30.5C2.25328 33.6081 0 37.5611 0 41.8611C0 51.8945 12.2754 60.0344 27.4187 60.0344C42.5619 60.0344 54.8373 51.8945 54.8373 41.8611C54.8373 37.5611 52.584 33.6156 48.821 30.5C43.7985 34.6567 36.0752 37.3121 27.4187 37.3121Z" fill="#30EBB9"/>
<mask id="mask1_301_83" style="mask-type:luminance" maskUnits="userSpaceOnUse" x="0" y="30" width="55" height="31">
<path d="M27.4187 37.3121C18.7621 37.3121 11.0464 34.6491 6.01632 30.5C2.25328 33.6081 0 37.5611 0 41.8611C0 51.8945 12.2754 60.0344 27.4187 60.0344C42.5619 60.0344 54.8373 51.8945 54.8373 41.8611C54.8373 37.5611 52.584 33.6156 48.821 30.5C43.7985 34.6567 36.0752 37.3121 27.4187 37.3121Z" fill="white"/>
</mask>
<g mask="url(#mask1_301_83)">
<path d="M67.4921 30.5H24.4977V61H67.4921V30.5Z" fill="#006A82"/>
</g>
</g>
<defs>
<clipPath id="clip0_301_83">
<rect width="198" height="61" fill="white"/>
</clipPath>
</defs>
</svg>
