<svg width="223" height="83" viewBox="0 0 223 83" fill="none" xmlns="http://www.w3.org/2000/svg">
<path d="M32.9927 32.3291C32.9927 32.3291 65.7357 21.4082 65.7357 41.4997C65.7357 61.5913 32.9927 50.7735 32.9927 50.7735V32.3291Z" fill="#18AA9D"/>
<path d="M65.7358 41.4999C70.804 37.2671 73.836 31.8926 73.836 26.0436C73.836 12.3856 57.3071 1.31348 36.918 1.31348C16.5289 1.31348 0 12.3856 0 26.0436C0 31.8926 3.03201 37.2671 8.10019 41.4999C14.8658 35.847 25.2588 32.2261 36.918 32.2261C48.5772 32.2261 58.9702 35.847 65.7358 41.4999Z" fill="#006A82"/>
<mask id="mask0_492_1532" style="mask-type:luminance" maskUnits="userSpaceOnUse" x="0" y="1" width="74" height="41">
<path d="M65.7358 41.4999C70.804 37.2671 73.836 31.8926 73.836 26.0436C73.836 12.3856 57.3071 1.31348 36.918 1.31348C16.5289 1.31348 0 12.3856 0 26.0436C0 31.8926 3.03201 37.2671 8.10019 41.4999C14.8658 35.847 25.2588 32.2261 36.918 32.2261C48.5772 32.2261 58.9702 35.847 65.7358 41.4999Z" fill="white"/>
</mask>
<g mask="url(#mask0_492_1532)">
<path d="M90.892 0H32.9929V41.5H90.892V0Z" fill="#30EBB9"/>
</g>
<path d="M36.918 50.7738C25.2588 50.7738 14.8658 47.153 8.10019 41.5C3.03201 45.7363 0 51.1073 0 56.9563C0 70.6143 16.5289 81.6865 36.918 81.6865C57.3071 81.6865 73.836 70.6143 73.836 56.9563C73.836 51.1073 70.804 45.7329 65.7358 41.5C58.9702 47.153 48.5772 50.7738 36.918 50.7738Z" fill="#006A82"/>
<mask id="mask1_492_1532" style="mask-type:luminance" maskUnits="userSpaceOnUse" x="0" y="41" width="74" height="41">
<path d="M36.918 50.7738C25.2588 50.7738 14.8658 47.153 8.10019 41.5C3.03201 45.7363 0 51.1073 0 56.9563C0 70.6143 16.5289 81.6865 36.918 81.6865C57.3071 81.6865 73.836 70.6143 73.836 56.9563C73.836 51.1073 70.804 45.7329 65.7358 41.5C58.9702 47.153 48.5772 50.7738 36.918 50.7738Z" fill="white"/>
</mask>
<g mask="url(#mask1_492_1532)">
<path d="M90.892 41.5H32.9929V83H90.892V41.5Z" fill="white"/>
</g>
<path d="M88.3354 41.5004V23.6611H99.1905C100.104 23.6611 100.929 23.8434 101.672 24.2079C102.411 24.5724 103.003 25.0813 103.441 25.7415C103.879 26.3982 104.101 27.1685 104.101 28.0522C104.101 28.8327 103.968 29.4964 103.701 30.05C103.434 30.6036 103.081 31.054 102.64 31.4013C102.202 31.7486 101.706 32.0065 101.155 32.1819V32.285C101.791 32.4226 102.37 32.6702 102.886 33.0243C103.403 33.3785 103.814 33.8599 104.115 34.4651C104.416 35.0703 104.567 35.8061 104.567 36.6727C104.567 37.6939 104.324 38.5639 103.845 39.2825C103.362 40.0012 102.726 40.5513 101.932 40.933C101.138 41.3147 100.251 41.5038 99.2692 41.5038H88.3389L88.3354 41.5004ZM92.9622 30.7514H97.5889C97.9688 30.7514 98.2904 30.6724 98.5574 30.5176C98.8243 30.3629 99.0296 30.1463 99.1768 29.8677C99.3239 29.5927 99.3958 29.2625 99.3958 28.8809C99.3958 28.3273 99.2315 27.894 98.9064 27.5811C98.5779 27.2682 98.1672 27.1134 97.6642 27.1134H92.9622V30.748V30.7514ZM92.9622 37.9174H97.9996C98.5505 37.9174 98.9954 37.7524 99.3308 37.4257C99.6661 37.0956 99.8338 36.5936 99.8338 35.9196C99.8338 35.5551 99.762 35.2319 99.6148 34.9465C99.4677 34.6611 99.2521 34.441 98.968 34.2828C98.684 34.1281 98.3349 34.049 97.9209 34.049H92.9588V37.9174H92.9622Z" fill="#30EBB9"/>
<path d="M115.754 41.8128C114.049 41.8128 112.578 41.5446 111.346 41.0082C110.114 40.4718 109.169 39.6671 108.516 38.5943C107.862 37.5215 107.534 36.1873 107.534 34.5953V23.6641H112.184V34.4921C112.184 35.6337 112.486 36.5346 113.088 37.1914C113.69 37.8481 114.576 38.1782 115.75 38.1782C116.924 38.1782 117.817 37.8481 118.437 37.1914C119.056 36.5346 119.367 35.6337 119.367 34.4921V23.6641H123.994V34.5953C123.994 36.1873 123.666 37.5215 123.012 38.5943C122.358 39.6671 121.417 40.4718 120.196 41.0082C118.97 41.5446 117.492 41.8128 115.75 41.8128H115.754Z" fill="#30EBB9"/>
<path d="M127.824 41.5004V23.6611H138.135C139.445 23.6611 140.537 23.9087 141.416 24.4004C142.296 24.8921 142.953 25.5695 143.394 26.4257C143.832 27.2819 144.055 28.2379 144.055 29.2935C144.055 30.4351 143.791 31.4529 143.268 32.3435C142.741 33.2341 142.005 33.9321 141.057 34.4341L144.623 41.497H139.456L136.509 35.2113H132.45V41.497H127.824V41.5004ZM132.45 31.7624H137.231C137.868 31.7624 138.381 31.5492 138.768 31.1262C139.154 30.7033 139.349 30.1359 139.349 29.4242C139.349 28.9565 139.264 28.5576 139.089 28.231C138.915 27.9043 138.675 27.6464 138.367 27.4642C138.056 27.2819 137.679 27.1925 137.231 27.1925H132.45V31.7624Z" fill="#30EBB9"/>
<path d="M144.828 41.5004L151.494 23.6611H157.052L163.718 41.5004H158.784L157.723 38.4091H150.642L149.581 41.5004H144.825H144.828ZM151.755 34.9293H156.587L155.32 31.1641C155.252 30.975 155.17 30.7343 155.074 30.4489C154.978 30.1635 154.882 29.8609 154.79 29.5411C154.694 29.2213 154.605 28.8981 154.52 28.568C154.434 28.2379 154.349 27.9525 154.263 27.7118H154.082C154.013 28.0419 153.914 28.4132 153.784 28.8293C153.654 29.2454 153.524 29.6614 153.397 30.0775C153.267 30.4936 153.151 30.858 153.048 31.1675L151.755 34.9327V34.9293Z" fill="#30EBB9"/>
<path d="M165.32 41.5004V23.6611H169.43L175.891 31.9446C176.011 32.0822 176.171 32.2816 176.37 32.5429C176.568 32.8043 176.763 33.0656 176.952 33.3338C177.14 33.602 177.28 33.8152 177.366 33.9699L177.496 33.9424V23.6611H181.787V41.5004H177.705L170.857 32.7768C170.631 32.5017 170.422 32.2128 170.224 31.9206C170.025 31.6248 169.864 31.3841 169.745 31.195L169.615 31.2225V41.5038H165.323L165.32 41.5004Z" fill="#30EBB9"/>
<path d="M185.658 41.5004V23.6611H193.073C195.004 23.6611 196.636 23.9809 197.971 24.6205C199.305 25.2601 200.322 26.2332 201.02 27.5433C201.718 28.8499 202.067 30.5245 202.067 32.567C202.067 34.6095 201.718 36.2669 201.02 37.5907C200.322 38.9146 199.305 39.898 197.971 40.5376C196.636 41.1772 195.004 41.497 193.073 41.497H185.658V41.5004ZM190.284 37.8658H193.022C193.744 37.8658 194.374 37.7627 194.908 37.5529C195.442 37.3466 195.89 37.044 196.253 36.6451C196.615 36.2463 196.882 35.7546 197.053 35.1666C197.225 34.5786 197.314 33.9046 197.314 33.1412V32.0512C197.314 31.2707 197.228 30.5898 197.053 30.0018C196.882 29.4138 196.615 28.9187 196.253 28.5233C195.89 28.1244 195.442 27.8218 194.908 27.6155C194.374 27.4092 193.744 27.3026 193.022 27.3026H190.284V37.8727V37.8658Z" fill="#30EBB9"/>
<path d="M213.695 41.8127C211.748 41.8127 210.081 41.4723 208.695 40.788C207.309 40.1037 206.245 39.079 205.503 37.7105C204.763 36.3419 204.39 34.6295 204.39 32.5698C204.39 30.5101 204.76 28.8012 205.503 27.4429C206.242 26.0847 207.306 25.0635 208.695 24.3792C210.081 23.6949 211.748 23.3545 213.695 23.3545C215.642 23.3545 217.309 23.6949 218.695 24.3792C220.081 25.0635 221.145 26.0847 221.888 27.4429C222.627 28.8012 223 30.5101 223 32.5698C223 34.6295 222.63 36.3454 221.888 37.7105C221.149 39.079 220.084 40.1037 218.695 40.788C217.309 41.4723 215.642 41.8127 213.695 41.8127ZM213.695 38.1781C214.434 38.1781 215.091 38.0647 215.659 37.8412C216.228 37.6176 216.707 37.2875 217.093 36.8543C217.48 36.421 217.771 35.8949 217.959 35.2691C218.147 34.6467 218.243 33.9453 218.243 33.1647V32.0231C218.243 31.2254 218.147 30.517 217.959 29.8946C217.767 29.2723 217.48 28.7427 217.093 28.3095C216.707 27.8762 216.228 27.5461 215.659 27.3226C215.091 27.0991 214.434 26.9856 213.695 26.9856C212.956 26.9856 212.275 27.0991 211.707 27.3226C211.139 27.5461 210.663 27.8762 210.287 28.3095C209.907 28.7427 209.623 29.2688 209.435 29.8946C209.246 30.517 209.151 31.2288 209.151 32.0231V33.1647C209.151 33.9453 209.246 34.6433 209.435 35.2691C209.623 35.8915 209.907 36.421 210.287 36.8543C210.667 37.2875 211.139 37.6176 211.707 37.8412C212.275 38.0681 212.939 38.1781 213.695 38.1781Z" fill="#30EBB9"/>
<path d="M87.6819 59.3392L91.4257 49.6699H93.7254L97.4863 59.3392H95.5083L94.7383 57.2795H90.334L89.5641 59.3392H87.6853H87.6819ZM90.909 55.7321H94.1497L93.1813 53.1085C93.1436 53.0156 93.0991 52.8953 93.0478 52.7474C92.9965 52.603 92.9417 52.4414 92.8869 52.2695C92.8322 52.0975 92.774 51.9187 92.7193 51.7399C92.6645 51.5611 92.6098 51.403 92.5653 51.262H92.4934C92.4387 51.4511 92.3702 51.6677 92.2915 51.9119C92.2128 52.156 92.1341 52.3864 92.0588 52.603C91.9835 52.8196 91.9219 52.9881 91.8774 53.1119L90.909 55.7355V55.7321Z" fill="white"/>
<path d="M99.7894 59.3392V51.2482H96.7163V49.6699H104.7V51.2482H101.613V59.3392H99.7894Z" fill="white"/>
<path d="M106.117 59.3392V49.6699H107.941V57.7471H112.766V59.3392H106.117Z" fill="white"/>
<path d="M113.115 59.3392L116.859 49.6699H119.159L122.92 59.3392H120.942L120.172 57.2795H115.767L114.997 59.3392H113.119H113.115ZM116.342 55.7321H119.583L118.615 53.1085C118.577 53.0156 118.532 52.8953 118.481 52.7474C118.43 52.603 118.375 52.4414 118.32 52.2695C118.266 52.0975 118.207 51.9187 118.153 51.7399C118.098 51.5611 118.043 51.403 117.999 51.262H117.927C117.872 51.4511 117.804 51.6677 117.725 51.9119C117.646 52.156 117.567 52.3864 117.492 52.603C117.417 52.8196 117.355 52.9881 117.311 53.1119L116.342 55.7355V55.7321Z" fill="white"/>
<path d="M124.059 59.3392V49.6699H125.798L129.908 55.3779C129.956 55.433 130.01 55.512 130.075 55.6118C130.14 55.7115 130.202 55.8078 130.257 55.9006C130.312 55.9934 130.349 56.0691 130.37 56.1275H130.438V49.6699H132.19V59.3392H130.466L126.342 53.5864C126.267 53.473 126.181 53.3354 126.082 53.1704C125.983 53.0053 125.914 52.8919 125.88 52.8265H125.808V59.3392H124.056H124.059Z" fill="white"/>
<path d="M136.683 59.3392V51.2482H133.61V49.6699H141.594V51.2482H138.507V59.3392H136.683Z" fill="white"/>
<path d="M143.011 59.3392V49.6699H144.835V59.3392H143.011Z" fill="white"/>
<path d="M151.204 59.5077C150.222 59.5077 149.383 59.3323 148.685 58.985C147.987 58.6377 147.456 58.0945 147.087 57.3586C146.717 56.6227 146.532 55.6703 146.532 54.5046C146.532 52.8025 146.943 51.544 147.768 50.7256C148.593 49.9072 149.736 49.498 151.204 49.498C151.998 49.498 152.716 49.6356 153.356 49.9072C153.996 50.1789 154.506 50.5915 154.886 51.1417C155.266 51.6918 155.454 52.3899 155.454 53.2358H153.589C153.589 52.7647 153.49 52.3692 153.288 52.046C153.086 51.7228 152.809 51.4752 152.453 51.3067C152.097 51.1382 151.69 51.0523 151.231 51.0523C150.595 51.0523 150.068 51.1761 149.647 51.4271C149.226 51.6747 148.914 52.046 148.712 52.5343C148.51 53.0226 148.411 53.6278 148.411 54.3533V54.6628C148.411 55.3952 148.51 56.0072 148.712 56.4955C148.914 56.9838 149.222 57.3517 149.64 57.5959C150.057 57.84 150.588 57.9638 151.231 57.9638C151.717 57.9638 152.141 57.8813 152.508 57.7162C152.874 57.5512 153.154 57.307 153.356 56.9838C153.558 56.6606 153.657 56.2617 153.657 55.7941H155.454C155.454 56.6399 155.266 57.338 154.893 57.8881C154.52 58.4383 154.01 58.8475 153.37 59.1157C152.73 59.3839 152.008 59.518 151.204 59.518V59.5077Z" fill="white"/>
<path d="M164.266 59.5082C162.777 59.5082 161.624 59.1059 160.799 58.3013C159.975 57.4967 159.564 56.2313 159.564 54.5017C159.564 53.3635 159.759 52.4282 160.146 51.6889C160.532 50.9531 161.094 50.4029 161.829 50.0384C162.562 49.6774 163.445 49.4951 164.475 49.4951C165.091 49.4951 165.672 49.5673 166.213 49.7083C166.754 49.8493 167.236 50.0625 167.65 50.3513C168.065 50.6402 168.393 50.9978 168.626 51.431C168.858 51.8643 168.978 52.3766 168.978 52.9681H167.1C167.1 52.6586 167.031 52.3835 166.898 52.1428C166.761 51.9021 166.576 51.7027 166.336 51.5376C166.097 51.3726 165.823 51.2522 165.515 51.1697C165.207 51.0906 164.879 51.0493 164.533 51.0493C164.02 51.0493 163.568 51.1181 163.178 51.2522C162.791 51.3898 162.466 51.5961 162.209 51.8712C161.953 52.1497 161.761 52.4935 161.634 52.9062C161.508 53.3188 161.446 53.8036 161.446 54.3572V54.653C161.446 55.4129 161.552 56.0387 161.768 56.527C161.983 57.0153 162.309 57.3763 162.743 57.6067C163.178 57.8371 163.718 57.954 164.362 57.954C164.913 57.954 165.399 57.868 165.813 57.6995C166.23 57.531 166.555 57.2835 166.795 56.9602C167.034 56.637 167.154 56.2381 167.154 55.7705V55.6708H164.081V54.1475H168.978V59.3363H167.674L167.52 58.2634C167.24 58.5454 166.942 58.7792 166.624 58.9615C166.306 59.1437 165.957 59.2813 165.573 59.3707C165.19 59.4601 164.755 59.5048 164.269 59.5048L164.266 59.5082Z" fill="white"/>
<path d="M171.028 59.3392V49.6699H176.093C176.805 49.6699 177.393 49.7937 177.859 50.0379C178.327 50.282 178.677 50.6293 178.913 51.0797C179.145 51.5302 179.265 52.0632 179.265 52.6718C179.265 53.2804 179.125 53.8581 178.844 54.3429C178.564 54.8278 178.153 55.1923 177.609 55.4364L179.601 59.3426H177.609L175.84 55.7493H172.852V59.3426H171.028V59.3392ZM172.852 54.2088H175.953C176.421 54.2088 176.781 54.0713 177.034 53.7996C177.287 53.528 177.414 53.1497 177.414 52.6718C177.414 52.3623 177.359 52.101 177.246 51.8878C177.133 51.6746 176.969 51.513 176.757 51.403C176.541 51.2895 176.274 51.2345 175.956 51.2345H172.855V54.2088H172.852Z" fill="white"/>
<path d="M185.435 59.5082C184.432 59.5082 183.57 59.326 182.841 58.9649C182.112 58.6039 181.551 58.0503 181.164 57.3075C180.778 56.5648 180.583 55.6295 180.583 54.5017C180.583 53.3738 180.778 52.4282 181.164 51.6889C181.551 50.9531 182.112 50.4029 182.841 50.0384C183.57 49.6774 184.436 49.4951 185.435 49.4951C186.434 49.4951 187.314 49.6774 188.036 50.0384C188.761 50.3995 189.316 50.9496 189.706 51.6889C190.093 52.4282 190.288 53.3635 190.288 54.5017C190.288 55.6398 190.093 56.5648 189.706 57.3075C189.319 58.0503 188.761 58.6004 188.036 58.9649C187.31 59.326 186.445 59.5082 185.435 59.5082ZM185.435 57.9574C185.921 57.9574 186.349 57.8852 186.718 57.7442C187.088 57.6032 187.399 57.3935 187.653 57.1184C187.906 56.8399 188.098 56.4995 188.228 56.0903C188.358 55.6811 188.423 55.21 188.423 54.6736V54.3641C188.423 53.8208 188.358 53.3394 188.228 52.9268C188.098 52.5142 187.906 52.1669 187.653 51.8918C187.399 51.6133 187.088 51.407 186.718 51.266C186.349 51.125 185.921 51.0562 185.435 51.0562C184.949 51.0562 184.521 51.125 184.152 51.266C183.782 51.407 183.471 51.6167 183.218 51.8918C182.964 52.1703 182.776 52.5142 182.649 52.9268C182.523 53.3394 182.461 53.8208 182.461 54.3641V54.6736C182.461 55.21 182.523 55.6811 182.649 56.0903C182.776 56.4995 182.964 56.8433 183.218 57.1184C183.471 57.3969 183.782 57.6032 184.152 57.7442C184.521 57.8852 184.949 57.9574 185.435 57.9574Z" fill="white"/>
<path d="M195.986 59.5082C195.144 59.5082 194.418 59.3706 193.813 59.099C193.203 58.8273 192.738 58.4113 192.416 57.8508C192.095 57.2903 191.934 56.5957 191.934 55.7567V49.667H193.758V55.7017C193.758 56.4444 193.953 57.0049 194.34 57.3866C194.726 57.7682 195.277 57.9574 195.989 57.9574C196.701 57.9574 197.255 57.7682 197.652 57.3866C198.049 57.0049 198.248 56.4444 198.248 55.7017V49.667H200.072V55.7567C200.072 56.5923 199.907 57.2903 199.582 57.8508C199.254 58.4113 198.788 58.8273 198.179 59.099C197.57 59.3706 196.841 59.5082 195.989 59.5082H195.986Z" fill="white"/>
<path d="M202.142 59.3392V49.6699H206.967C207.679 49.6699 208.264 49.7971 208.726 50.0516C209.188 50.3061 209.537 50.6637 209.77 51.1244C210.003 51.5852 210.123 52.1354 210.123 52.7749C210.123 53.4145 209.999 53.9544 209.756 54.4255C209.513 54.8965 209.151 55.261 208.668 55.5189C208.186 55.7768 207.587 55.9075 206.865 55.9075H203.959V59.346H202.135L202.142 59.3392ZM203.966 54.3361H206.813C207.282 54.3361 207.645 54.1985 207.902 53.92C208.158 53.6415 208.288 53.2598 208.288 52.7715C208.288 52.4414 208.233 52.1663 208.121 51.9394C208.008 51.7124 207.843 51.5405 207.631 51.4167C207.416 51.2964 207.145 51.2345 206.817 51.2345H203.97V54.3361H203.966Z" fill="white"/>
</svg>
