<svg width="32" height="32" viewBox="0 0 32 32" xmlns="http://www.w3.org/2000/svg">
    <!-- Background circle with gradient -->
    <defs>
      <radialGradient id="bgGradient" cx="0.5" cy="0.3">
        <stop offset="0%" stop-color="#30EBB9"/>
        <stop offset="100%" stop-color="#18AA9D"/>
      </radialGradient>
      <linearGradient id="waveGradient" x1="0%" y1="0%" x2="100%" y2="100%">
        <stop offset="0%" stop-color="#132545"/>
        <stop offset="100%" stop-color="#006A82"/>
      </linearGradient>
    </defs>
    
    <!-- Background -->
    <circle cx="16" cy="16" r="15" fill="url(#bgGradient)" stroke="#006A82" stroke-width="2"/>
    
    <!-- Stylized wave/ship element inspired by logo -->
    <path d="M6 20 C8 16, 12 14, 16 15 C20 14, 24 16, 26 20 L26 24 C24 22, 20 21, 16 21 C12 21, 8 22, 6 24 Z" 
          fill="url(#waveGradient)"/>
    
    <!-- Top wave accent -->
    <path d="M8 12 C12 10, 20 10, 24 12 C22 14, 18 15, 16 15 C14 15, 10 14, 8 12 Z" 
          fill="#132545" opacity="0.8"/>
    
    <!-- Small accent dot (representing nautical element) -->
    <circle cx="16" cy="18" r="2" fill="#30EBB9"/>
  </svg>