<svg xmlns="http://www.w3.org/2000/svg" viewBox="0 0 200 200" width="200" height="200">
  <!-- Maritime Onboarding Platform Logo - White Version -->
  <defs>
    <style>
      .logo-text { font-family: Arial, sans-serif; font-weight: bold; fill: white; }
      .logo-icon { fill: white; stroke: white; stroke-width: 2; }
    </style>
  </defs>
  
  <!-- Background circle -->
  <circle cx="100" cy="100" r="95" fill="none" stroke="white" stroke-width="3" opacity="0.3"/>
  
  <!-- Ship icon -->
  <g class="logo-icon">
    <!-- Ship hull -->
    <path d="M50 120 L150 120 L140 140 L60 140 Z" fill="white"/>
    <!-- Ship deck -->
    <rect x="60" y="110" width="80" height="10" fill="white"/>
    <!-- Mast -->
    <line x1="100" y1="110" x2="100" y2="70" stroke="white" stroke-width="3"/>
    <!-- Sail -->
    <path d="M105 70 L105 100 L130 95 L130 75 Z" fill="white"/>
    <!-- Flag -->
    <path d="M100 70 L100 75 L120 72 L100 70" fill="white"/>
  </g>
  
  <!-- Waves -->
  <g class="logo-icon" opacity="0.7">
    <path d="M30 150 Q40 145 50 150 T70 150" stroke="white" stroke-width="2" fill="none"/>
    <path d="M130 150 Q140 145 150 150 T170 150" stroke="white" stroke-width="2" fill="none"/>
    <path d="M40 160 Q50 155 60 160 T80 160" stroke="white" stroke-width="2" fill="none"/>
    <path d="M120 160 Q130 155 140 160 T160 160" stroke="white" stroke-width="2" fill="none"/>
  </g>
  
  <!-- Text -->
  <text x="100" y="185" text-anchor="middle" class="logo-text" font-size="14">MARITIME</text>
</svg>
